<?xml version="1.0" encoding="UTF-8" standalone="no"?>
<!-- Created with Inkscape (http://www.inkscape.org/) -->

<svg
   xmlns:dc="http://purl.org/dc/elements/1.1/"
   xmlns:cc="http://creativecommons.org/ns#"
   xmlns:rdf="http://www.w3.org/1999/02/22-rdf-syntax-ns#"
   xmlns:svg="http://www.w3.org/2000/svg"
   xmlns="http://www.w3.org/2000/svg"
   xmlns:xlink="http://www.w3.org/1999/xlink"
   xmlns:sodipodi="http://sodipodi.sourceforge.net/DTD/sodipodi-0.dtd"
   xmlns:inkscape="http://www.inkscape.org/namespaces/inkscape"
   id="svg2"
   sodipodi:version="0.32"
   inkscape:version="0.48.4 r9939"
   width="128"
   height="128"
   version="1.0"
   inkscape:export-filename="C:\dev\Miam-Player\src\Player\config\advanced.png"
   inkscape:export-xdpi="188.85246"
   inkscape:export-ydpi="188.85246"
   sodipodi:docname="application_x_desktop.svg"
   inkscape:output_extension="org.inkscape.output.svg.inkscape">
  <metadata
     id="metadata7">
    <rdf:RDF>
      <cc:Work
         rdf:about="">
        <dc:format>image/svg+xml</dc:format>
        <dc:type
           rdf:resource="http://purl.org/dc/dcmitype/StillImage" />
        <dc:title></dc:title>
      </cc:Work>
    </rdf:RDF>
  </metadata>
  <defs
     id="defs5">
    <linearGradient
       id="linearGradient3897">
      <stop
         style="stop-color:#363636;stop-opacity:1;"
         offset="0"
         id="stop3899" />
      <stop
         style="stop-color:#363636;stop-opacity:0;"
         offset="1"
         id="stop3901" />
    </linearGradient>
    <linearGradient
       id="linearGradient3292">
      <stop
         style="stop-color:#000000;stop-opacity:1;"
         offset="0"
         id="stop3294" />
      <stop
         id="stop3304"
         offset="0.5"
         style="stop-color:#ffffff;stop-opacity:1;" />
      <stop
         style="stop-color:#ffffff;stop-opacity:1;"
         offset="1"
         id="stop3296" />
    </linearGradient>
    <linearGradient
       id="linearGradient5515">
      <stop
         style="stop-color:#ffffff;stop-opacity:0;"
         offset="0"
         id="stop5517" />
      <stop
         id="stop5523"
         offset="0.32512316"
         style="stop-color:#ffffff;stop-opacity:1;" />
      <stop
         style="stop-color:#ffffff;stop-opacity:0;"
         offset="1"
         id="stop5519" />
    </linearGradient>
    <linearGradient
       id="linearGradient5267">
      <stop
         style="stop-color:#ffffff;stop-opacity:1;"
         offset="0"
         id="stop5269" />
      <stop
         id="stop5275"
         offset="0.5"
         style="stop-color:#ffffff;stop-opacity:0.50359714;" />
      <stop
         style="stop-color:#ffffff;stop-opacity:1;"
         offset="1"
         id="stop5271" />
    </linearGradient>
    <linearGradient
       id="linearGradient5247">
      <stop
         style="stop-color:#ffffff;stop-opacity:1;"
         offset="0"
         id="stop5249" />
      <stop
         id="stop5255"
         offset="0.5"
         style="stop-color:#ffffff;stop-opacity:0.79136693;" />
      <stop
         style="stop-color:#ffffff;stop-opacity:0;"
         offset="1"
         id="stop5251" />
    </linearGradient>
    <linearGradient
       inkscape:collect="always"
       id="linearGradient4993">
      <stop
         style="stop-color:#ffffff;stop-opacity:1;"
         offset="0"
         id="stop4995" />
      <stop
         style="stop-color:#ffffff;stop-opacity:0;"
         offset="1"
         id="stop4997" />
    </linearGradient>
    <linearGradient
       inkscape:collect="always"
       id="linearGradient4913">
      <stop
         style="stop-color:#ffffff;stop-opacity:1;"
         offset="0"
         id="stop4915" />
      <stop
         style="stop-color:#ffffff;stop-opacity:0;"
         offset="1"
         id="stop4917" />
    </linearGradient>
    <linearGradient
       id="linearGradient4893">
      <stop
         style="stop-color:#000000;stop-opacity:0;"
         offset="0"
         id="stop4895" />
      <stop
         id="stop4909"
         offset="0.61052197"
         style="stop-color:#000000;stop-opacity:0;" />
      <stop
         id="stop4905"
         offset="0.68472904"
         style="stop-color:#000000;stop-opacity:0.37769786;" />
      <stop
         style="stop-color:#000000;stop-opacity:0;"
         offset="0.7499575"
         id="stop4907" />
      <stop
         style="stop-color:#000000;stop-opacity:0;"
         offset="1"
         id="stop4897" />
    </linearGradient>
    <linearGradient
       id="linearGradient3184">
      <stop
         style="stop-color:#fcfcfc;stop-opacity:1;"
         offset="0"
         id="stop3186" />
      <stop
         style="stop-color:#c0c0c0;stop-opacity:1;"
         offset="1"
         id="stop3188" />
    </linearGradient>
    <linearGradient
       id="linearGradient3152">
      <stop
         style="stop-color:#a2a2a2;stop-opacity:1;"
         offset="0"
         id="stop3154" />
      <stop
         id="stop3166"
         offset="0.27766603"
         style="stop-color:#b7b7b7;stop-opacity:1;" />
      <stop
         id="stop3160"
         offset="0.34831479"
         style="stop-color:#f2f2f2;stop-opacity:1;" />
      <stop
         style="stop-color:#858585;stop-opacity:1;"
         offset="0.69134921"
         id="stop3162" />
      <stop
         id="stop3164"
         offset="0.76705599"
         style="stop-color:#8f8f8f;stop-opacity:1;" />
      <stop
         style="stop-color:#a4a4a4;stop-opacity:1;"
         offset="0.84946543"
         id="stop3182" />
      <stop
         style="stop-color:#757575;stop-opacity:1;"
         offset="0.88352799"
         id="stop3178" />
      <stop
         id="stop3180"
         offset="0.912646"
         style="stop-color:#989898;stop-opacity:1;" />
      <stop
         style="stop-color:#acacac;stop-opacity:1;"
         offset="1"
         id="stop3156" />
    </linearGradient>
    <linearGradient
       id="linearGradient10207">
      <stop
         id="stop10209"
         offset="0"
         style="stop-color:#b4b4b4;stop-opacity:1;" />
      <stop
         style="stop-color:#d1d1d1;stop-opacity:1;"
         offset="0.5"
         id="stop4937" />
      <stop
         id="stop10211"
         offset="1"
         style="stop-color:#fafafa;stop-opacity:1;" />
    </linearGradient>
    <linearGradient
       id="linearGradient3752">
      <stop
         id="stop3754"
         offset="0"
         style="stop-color:#000000;stop-opacity:1;" />
      <stop
         id="stop3756"
         offset="1"
         style="stop-color:#000000;stop-opacity:0;" />
    </linearGradient>
    <radialGradient
       inkscape:collect="always"
       xlink:href="#linearGradient4893"
       id="radialGradient4903"
       cx="-1.2494017"
       cy="23.725372"
       fx="-1.2494017"
       fy="61.40414"
       r="60"
       gradientUnits="userSpaceOnUse"
       gradientTransform="matrix(1.3581356,1.5026073,-1.6333333,1.4762927,-61.051702,-44.648234)" />
    <radialGradient
       inkscape:collect="always"
       xlink:href="#linearGradient4913"
       id="radialGradient4925"
       gradientUnits="userSpaceOnUse"
       cx="-84"
       cy="64"
       fx="-84"
       fy="64"
       r="60" />
    <mask
       maskUnits="userSpaceOnUse"
       id="mask4921">
      <path
         style="opacity:1;fill:url(#radialGradient4925);fill-opacity:1;stroke:none;stroke-width:3;stroke-linecap:round;stroke-linejoin:round;stroke-miterlimit:4;stroke-dasharray:none;stroke-dashoffset:1.08779998;stroke-opacity:1"
         d="M -83.999999,4 C -87.273852,4.0172764 -89.375767,4.1739184 -92.624999,4.625 C -93.586949,4.778184 -94.374999,5.4055494 -94.374999,6.375 L -94.968749,15.8125 C -95.057257,16.767694 -95.725392,17.39683 -96.437499,17.625 C -96.45933,17.631995 -96.478095,17.650033 -96.499999,17.65625 C -100.61684,18.761419 -104.52293,20.378352 -108.125,22.46875 C -108.77655,22.750681 -109.61713,22.733687 -110.3125,22.15625 L -117.40625,15.90625 C -118.09175,15.220752 -119.08648,15.33437 -119.875,15.90625 C -122.49151,17.884842 -124.11032,19.259755 -126.4375,21.5625 C -128.74024,23.889683 -130.11516,25.508484 -132.09375,28.125 C -132.66563,28.913521 -132.77925,29.908252 -132.09375,30.59375 L -125.84375,37.6875 C -125.37003,38.257979 -125.10755,38.996346 -125.375,39.53125 L -125.4375,39.65625 C -127.68302,43.45585 -129.43236,47.592563 -130.5625,51.96875 C -130.57434,51.989388 -130.58117,52.010911 -130.59375,52.03125 C -130.91096,52.544091 -131.44914,52.962834 -132.1875,53.03125 L -141.625,53.625 C -142.59444,53.625 -143.22181,54.41305 -143.375,55.375 C -143.82608,58.624232 -143.98272,60.726147 -144,64 C -143.98272,67.273853 -143.82608,69.375768 -143.375,72.625 C -143.22181,73.586946 -142.59444,74.375 -141.625,74.375 L -132.1875,74.96875 C -131.32015,75.04912 -130.74406,75.615317 -130.46875,76.25 C -129.36552,80.393354 -127.7025,84.314208 -125.59375,87.9375 C -125.22083,88.606007 -125.21212,89.551864 -125.84375,90.3125 L -132.09375,97.40625 C -132.77925,98.091746 -132.66563,99.086477 -132.09375,99.875 C -130.11516,102.49151 -128.74024,104.11031 -126.4375,106.4375 C -124.11032,108.74024 -122.49152,110.11516 -119.875,112.09375 C -119.08648,112.66563 -118.09175,112.77925 -117.40625,112.09375 L -110.3125,105.84375 C -109.55186,105.21212 -108.60601,105.22083 -107.9375,105.59375 L -107.84375,105.5 C -104.31609,107.51717 -100.51556,109.10952 -96.499999,110.1875 L -96.499999,110.34375 C -95.763598,110.55276 -95.05997,111.20302 -94.968749,112.1875 L -94.374999,121.625 C -94.374999,122.59444 -93.586949,123.22181 -92.624999,123.375 C -89.375767,123.82608 -87.273852,123.98272 -83.999999,124 C -80.726146,123.98272 -78.624231,123.82608 -75.374999,123.375 C -74.413053,123.22181 -73.624999,122.59444 -73.624999,121.625 L -73.031249,112.1875 C -72.940025,111.20302 -72.2364,110.55276 -71.499999,110.34375 L -71.499999,110.1875 C -67.484442,109.10952 -63.683904,107.51717 -60.156249,105.5 L -60.062499,105.59375 C -59.393992,105.22083 -58.448137,105.21212 -57.687499,105.84375 L -50.593749,112.09375 C -49.908246,112.77926 -48.913512,112.66564 -48.124999,112.09375 C -45.508489,110.11516 -43.889689,108.74024 -41.562499,106.4375 C -39.259759,104.11031 -37.884839,102.49151 -35.906249,99.875 C -35.334359,99.086487 -35.220739,98.091755 -35.906249,97.40625 L -42.156249,90.3125 C -42.787879,89.55186 -42.779169,88.606007 -42.406249,87.9375 C -40.297499,84.314208 -38.634479,80.393354 -37.531249,76.25 C -37.255939,75.615317 -36.679849,75.04912 -35.812499,74.96875 L -26.374999,74.375 C -25.405549,74.375 -24.778179,73.586946 -24.624999,72.625 C -24.173919,69.375768 -24.017279,67.273853 -23.999999,64 C -24.017279,60.726147 -24.173919,58.624232 -24.624999,55.375 C -24.778179,54.41305 -25.405549,53.625 -26.374999,53.625 L -35.812499,53.03125 C -36.550859,52.962834 -37.089039,52.544091 -37.406249,52.03125 C -37.411879,52.009328 -37.431839,51.99066 -37.437499,51.96875 C -38.567639,47.592563 -40.588709,43.603839 -42.562499,39.65625 L -42.624999,39.53125 C -42.892449,38.996346 -42.629969,38.257977 -42.156249,37.6875 L -35.906249,30.59375 C -35.220739,29.908244 -35.334369,28.913516 -35.906249,28.125 C -37.884839,25.508484 -39.259759,23.88968 -41.562499,21.5625 C -43.889679,19.259753 -45.508479,17.884841 -48.124999,15.90625 C -48.913515,15.334366 -49.908243,15.220745 -50.593749,15.90625 L -57.687499,22.15625 C -58.382875,22.733685 -59.223454,22.750682 -59.874999,22.46875 C -63.477074,20.378352 -67.383162,18.761419 -71.499999,17.65625 C -71.521903,17.650033 -71.540668,17.631995 -71.562499,17.625 C -72.274606,17.39683 -72.942738,16.767694 -73.031249,15.8125 L -73.624999,6.375 C -73.624999,5.4055494 -74.413053,4.778184 -75.374999,4.625 C -78.624231,4.1739184 -80.726146,4.0172764 -83.999999,4 z M -83.999999,48 C -75.168,47.999999 -67.999999,55.168 -67.999999,64 C -68,72.832 -75.168,80 -83.999999,80 C -92.831999,80 -99.999999,72.832 -99.999999,64 C -99.999998,55.167999 -92.831998,48 -83.999999,48 z "
         id="path4923"
         sodipodi:nodetypes="ccccssccccccccsccscccccccccccccccccccccccccccccccccccccccccccccccssssccccccccsscccccsssc" />
    </mask>
    <radialGradient
       inkscape:collect="always"
       xlink:href="#linearGradient4993"
       id="radialGradient5008"
       gradientUnits="userSpaceOnUse"
       gradientTransform="matrix(1,0,0,0.5780636,0,-101.84696)"
       cx="94.818924"
       cy="67.895119"
       fx="94.818924"
       fy="67.895119"
       r="43.734375" />
    <filter
       inkscape:collect="always"
       id="filter5054">
      <feGaussianBlur
         inkscape:collect="always"
         stdDeviation="1.2828183"
         id="feGaussianBlur5056" />
    </filter>
    <clipPath
       clipPathUnits="userSpaceOnUse"
       id="clipPath5073">
      <path
         id="path5075"
         d="M 76.90625,-70.062499 C 73.993994,-66.090403 69.299199,-63.499999 64,-63.499999 C 59.104212,-63.499999 54.716932,-65.68865 51.78125,-69.156249 C 28.641624,-73.441819 25.163605,-55.116541 20.28125,-38.406249 C 20.690082,-37.972249 21.088367,-37.541669 21.5625,-37.062499 C 23.88968,-34.759759 25.50848,-33.384839 28.125,-31.406249 C 28.91352,-30.834369 29.90825,-30.720749 30.59375,-31.406249 L 37.6875,-37.656249 C 38.44814,-38.287879 39.39399,-38.279169 40.0625,-37.906249 L 40.15625,-37.999999 C 43.68391,-35.982829 47.484439,-34.390479 51.5,-33.312499 L 51.5,-33.156249 C 52.236402,-32.947239 52.940029,-32.296979 53.03125,-31.312499 L 53.625,-21.874999 C 53.625001,-20.905559 54.41305,-20.278189 55.375,-20.124999 C 58.624233,-19.673919 60.726147,-19.517279 64,-19.499999 C 67.273854,-19.517279 69.375768,-19.673919 72.625,-20.124999 C 73.586947,-20.278189 74.375,-20.905559 74.375,-21.874999 L 74.96875,-31.312499 C 75.059975,-32.296979 75.763599,-32.947239 76.5,-33.156249 L 76.5,-33.312499 C 80.515558,-34.390479 84.316095,-35.982829 87.84375,-37.999999 L 87.9375,-37.906249 C 88.606008,-38.279169 89.551862,-38.287879 90.3125,-37.656249 L 97.40625,-31.406249 C 98.091754,-30.720739 99.086487,-30.834359 99.875,-31.406249 C 102.49151,-33.384839 104.11031,-34.759759 106.4375,-37.062499 C 106.92292,-37.553069 107.3327,-37.993909 107.75,-38.437499 C 111.67353,-45.524173 82.140773,-81.872038 76.90625,-70.062499 z "
         clip-path="none"
         mask="none"
         style="opacity:0.43122678;fill:url(#radialGradient5077);fill-opacity:1;stroke:none;stroke-width:3;stroke-linecap:round;stroke-linejoin:round;stroke-miterlimit:4;stroke-dasharray:none;stroke-dashoffset:1.08779998;stroke-opacity:1"
         sodipodi:nodetypes="csccccccccccccccccccccccccccc" />
    </clipPath>
    <radialGradient
       inkscape:collect="always"
       xlink:href="#linearGradient4993"
       id="radialGradient5077"
       gradientUnits="userSpaceOnUse"
       gradientTransform="matrix(1,0,0,0.5780636,0,-101.84696)"
       cx="94.818924"
       cy="67.895119"
       fx="94.818924"
       fy="67.895119"
       r="43.734375" />
    <radialGradient
       inkscape:collect="always"
       xlink:href="#linearGradient4993"
       id="radialGradient5081"
       gradientUnits="userSpaceOnUse"
       gradientTransform="matrix(1,0,0,0.5780636,0,-101.84696)"
       cx="94.818924"
       cy="67.895119"
       fx="94.818924"
       fy="67.895119"
       r="43.734375" />
    <radialGradient
       inkscape:collect="always"
       xlink:href="#linearGradient4893"
       id="radialGradient5177"
       gradientUnits="userSpaceOnUse"
       gradientTransform="matrix(1.3581356,1.5026073,-1.6333333,1.4762927,-61.051702,-44.648234)"
       cx="-1.2494017"
       cy="23.725372"
       fx="-1.2494017"
       fy="61.40414"
       r="60" />
    <radialGradient
       inkscape:collect="always"
       xlink:href="#linearGradient4993"
       id="radialGradient5179"
       gradientUnits="userSpaceOnUse"
       gradientTransform="matrix(1,0,0,0.5780636,0,-101.84696)"
       cx="94.818924"
       cy="67.895119"
       fx="94.818924"
       fy="67.895119"
       r="43.734375" />
    <radialGradient
       inkscape:collect="always"
       xlink:href="#linearGradient4993"
       id="radialGradient5181"
       gradientUnits="userSpaceOnUse"
       gradientTransform="matrix(1,0,0,0.5780636,0,-101.84696)"
       cx="94.818924"
       cy="67.895119"
       fx="94.818924"
       fy="67.895119"
       r="43.734375" />
    <linearGradient
       inkscape:collect="always"
       xlink:href="#linearGradient5247"
       id="linearGradient3298"
       x1="310.84995"
       y1="53.393089"
       x2="321.2735"
       y2="308.0267"
       gradientUnits="userSpaceOnUse" />
    <linearGradient
       inkscape:collect="always"
       xlink:href="#linearGradient3292"
       id="linearGradient3330"
       gradientUnits="userSpaceOnUse"
       x1="310.84995"
       y1="-27.656115"
       x2="310.84995"
       y2="270.16995"
       gradientTransform="matrix(0.5892134,0,0,0.5892134,-119.15695,-0.1299716)" />
    <linearGradient
       inkscape:collect="always"
       xlink:href="#linearGradient3897"
       id="linearGradient3903"
       x1="3.0000023"
       y1="64"
       x2="125"
       y2="64"
       gradientUnits="userSpaceOnUse"
       gradientTransform="matrix(0,-1,1,0,6.1e-6,128.00005)" />
  </defs>
  <sodipodi:namedview
     inkscape:window-height="837"
     inkscape:window-width="1270"
     inkscape:pageshadow="2"
     inkscape:pageopacity="0.0"
     guidetolerance="10.0"
     gridtolerance="10.0"
     objecttolerance="10.0"
     borderopacity="1.0"
     bordercolor="#666666"
     pagecolor="#ffffff"
     id="base"
     width="128px"
     height="128px"
     showgrid="false"
     inkscape:zoom="3.4968641"
     inkscape:cx="38.738387"
     inkscape:cy="45.161389"
     inkscape:window-x="306"
     inkscape:window-y="118"
     inkscape:current-layer="svg2"
     inkscape:window-maximized="0">
    <inkscape:grid
       id="GridFromPre046Settings"
       type="xygrid"
       originx="0px"
       originy="0px"
       spacingx="4px"
       spacingy="4px"
       color="#3f3fff"
       empcolor="#3f3fff"
       opacity="0.15"
       empopacity="0.38"
       empspacing="2" />
  </sodipodi:namedview>
  <path
     sodipodi:nodetypes="ccccssccccccccsccscccccccccccccccccccccccccccccccccccccccccccccccssssccccccccsscccccsssc"
     id="path5091"
     d="m 4.0000061,64.000044 c 0.0173,3.27385 0.17392,5.37577 0.625,8.625 0.15318,0.96195 0.78055,1.75 1.75,1.75 l 9.4374999,0.59375 c 0.95519,0.08851 1.58433,0.75664 1.8125,1.46875 0.007,0.02183 0.025,0.0406 0.0312,0.0625 1.10517,4.11684 2.7221,8.02293 4.8125,11.625 0.28193,0.65155 0.26494,1.49213 -0.3125,2.1875 l -6.25,7.09375 c -0.6855,0.6855 -0.57188,1.68023 0,2.46875 1.97859,2.616506 3.3535,4.235316 5.65625,6.562496 2.32718,2.30274 3.94598,3.67766 6.562494,5.65625 0.78852,0.57188 1.78325,0.6855 2.46875,0 l 7.09375,-6.25 c 0.57048,-0.47372 1.30885,-0.7362 1.84375,-0.46875 l 0.125,0.0625 c 3.7996,2.24552 7.93631,3.99486 12.3125,5.125 0.02064,0.0118 0.04216,0.0187 0.0625,0.0312 0.51284,0.31721 0.93158,0.85539 1,1.59375 l 0.59375,9.4375 c 0,0.96945 0.78805,1.59682 1.75,1.75001 3.24923,0.45108 5.35115,0.60772 8.625,0.625 3.27385,-0.0173 5.37577,-0.17392 8.625,-0.625 0.96195,-0.15319 1.75,-0.78056 1.75,-1.75001 l 0.59375,-9.4375 c 0.08037,-0.86735 0.64657,-1.44344 1.28125,-1.71875 4.14335,-1.10323 8.06421,-2.76625 11.6875,-4.875 0.66851,-0.37292 1.61436,-0.38163 2.375,0.25 l 7.09375,6.25 c 0.6855,0.6855 1.68023,0.57188 2.46875,0 2.61651,-1.97859 4.23531,-3.35351 6.5625,-5.65625 2.30274,-2.32718 3.67766,-3.94598 5.65625,-6.562496 0.57188,-0.78852 0.6855,-1.78325 0,-2.46875 l -6.25,-7.09375 c -0.63163,-0.76064 -0.62292,-1.70649 -0.25,-2.375 l -0.0937,-0.09375 c 2.01717,-3.52766 3.60952,-7.32819 4.6875,-11.34375 l 0.15625,0 c 0.20901,-0.7364 0.85927,-1.44003 1.84375,-1.53125 l 9.4375,-0.59375 c 0.96944,0 1.59681,-0.78805 1.75,-1.75 0.45108,-3.24923 0.60772,-5.35115 0.625,-8.625 -0.0173,-3.27385 -0.17392,-5.37577 -0.625,-8.625 -0.15319,-0.96195 -0.78056,-1.75 -1.75,-1.75 l -9.4375,-0.59375 c -0.98448,-0.09122 -1.63474,-0.79485 -1.84375,-1.53125 l -0.15625,0 c -1.07798,-4.01556 -2.67033,-7.8161 -4.6875,-11.34375 l 0.0937,-0.09375 c -0.37292,-0.66851 -0.38163,-1.61436 0.25,-2.375 l 6.25,-7.093745 c 0.68551,-0.6855 0.57189,-1.68024 0,-2.46875 -1.97859,-2.616513 -3.35351,-4.235313 -5.65625,-6.562503 -2.32719,-2.30274 -3.94599,-3.67766 -6.5625,-5.65625 -0.78851,-0.57189 -1.78324,-0.68551 -2.46875,0 l -7.09375,6.25 c -0.76064,0.63163 -1.70649,0.62292 -2.375,0.25 -3.62329,-2.10875 -7.54415,-3.77177 -11.6875,-4.875 -0.63468,-0.27531 -1.20088,-0.8514 -1.28125,-1.71875 L 74.37495,6.3749961 c 0,-0.9694499 -0.78805,-1.5968199 -1.75,-1.75 -3.24923,-0.45108 -5.35115,-0.60772 -8.625,-0.625 -3.27385,0.0173 -5.37577,0.17392 -8.625,0.625 -0.96195,0.1531801 -1.75,0.7805501 -1.75,1.75 L 53.0312,15.812496 c -0.06842,0.73836 -0.48716,1.27654 -1,1.59375 -0.02192,0.006 -0.04059,0.0256 -0.0625,0.0312 -4.37619,1.13014 -8.36491,3.15121 -12.3125,5.125 l -0.125,0.0625 c -0.5349,0.26745 -1.27327,0.005 -1.84375,-0.46875 l -7.09375,-6.25 c -0.68551,-0.68551 -1.68023,-0.57188 -2.46875,0 -2.616514,1.97859 -4.235314,3.35351 -6.562494,5.65625 -2.30275,2.32718 -3.67766,3.94598 -5.65625,6.562503 -0.57188,0.78852 -0.68551,1.78324 0,2.46875 l 6.25,7.093745 c 0.57744,0.69538 0.59443,1.53595 0.3125,2.1875 -2.0904,3.60207 -3.70733,7.50816 -4.8125,11.625 -0.006,0.0219 -0.0242,0.04067 -0.0312,0.0625 -0.22817,0.71211 -0.85731,1.38024 -1.8125,1.46875 l -9.4374999,0.59375 c -0.96945,0 -1.59682,0.78805 -1.75,1.75 -0.45108,3.24923 -0.60772,5.35115 -0.625,8.625 z m 43.9999939,0 c 0,-8.832 7.168,-16 16,-16 8.832,0 16,7.168 16,16 0,8.832 -7.168,16 -16,16 -8.832,0 -16,-7.168 -16,-16 z"
     style="fill:url(#linearGradient3903);fill-opacity:1;stroke:#000000;stroke-width:2;stroke-linecap:round;stroke-linejoin:round;stroke-miterlimit:4;stroke-opacity:0.34496123;stroke-dasharray:none;stroke-dashoffset:1.08779998000000000"
     mask="none"
     inkscape:connector-curvature="0" />
</svg>
