<?xml version="1.0" encoding="UTF-8" standalone="no"?>
<!-- Created with Inkscape (http://www.inkscape.org/) -->

<svg
   xmlns:dc="http://purl.org/dc/elements/1.1/"
   xmlns:cc="http://creativecommons.org/ns#"
   xmlns:rdf="http://www.w3.org/1999/02/22-rdf-syntax-ns#"
   xmlns:svg="http://www.w3.org/2000/svg"
   xmlns="http://www.w3.org/2000/svg"
   xmlns:sodipodi="http://sodipodi.sourceforge.net/DTD/sodipodi-0.dtd"
   xmlns:inkscape="http://www.inkscape.org/namespaces/inkscape"
   width="72"
   height="72"
   id="svg2606"
   sodipodi:version="0.32"
   inkscape:version="0.48.4 r9939"
   version="1.0"
   sodipodi:docname="application_x_kcsrc.svg"
   inkscape:output_extension="org.inkscape.output.svg.inkscape"
   inkscape:export-filename="C:\Users\MasterMatt\Desktop\application_x_kcsrc.png"
   inkscape:export-xdpi="320.0011"
   inkscape:export-ydpi="320.0011">
  <defs
     id="defs2608">
    <linearGradient
       id="linearGradient10207">
      <stop
         style="stop-color:#a2a2a2;stop-opacity:1;"
         offset="0"
         id="stop10209" />
      <stop
         style="stop-color:#ffffff;stop-opacity:1;"
         offset="1"
         id="stop10211" />
    </linearGradient>
    <linearGradient
       id="XMLID_12_"
       gradientUnits="userSpaceOnUse"
       x1="96"
       y1="104"
       x2="88.000198"
       y2="96.000198">
      <stop
         offset="0"
         style="stop-color:#888A85"
         id="stop83" />
      <stop
         offset="0.0072"
         style="stop-color:#8C8E89"
         id="stop85" />
      <stop
         offset="0.0673"
         style="stop-color:#ABACA9"
         id="stop87" />
      <stop
         offset="0.1347"
         style="stop-color:#C5C6C4"
         id="stop89" />
      <stop
         offset="0.2652576"
         style="stop-color:#DBDBDA"
         id="stop91" />
      <stop
         offset="0.37646064"
         style="stop-color:#EBEBEB"
         id="stop93" />
      <stop
         offset="0.48740286"
         style="stop-color:#F7F7F6"
         id="stop95" />
      <stop
         offset="0.6324091"
         style="stop-color:#FDFDFD"
         id="stop97" />
      <stop
         offset="1"
         style="stop-color:#FFFFFF"
         id="stop99" />
    </linearGradient>
    <radialGradient
       id="XMLID_8_"
       cx="102"
       cy="112.3047"
       r="139.55859"
       gradientUnits="userSpaceOnUse">
      <stop
         offset="0"
         style="stop-color:#b7b8b9;stop-opacity:1;"
         id="stop41" />
      <stop
         offset="0.18851049"
         style="stop-color:#ECECEC"
         id="stop47" />
      <stop
         offset="0.25718147"
         style="stop-color:#FAFAFA"
         id="stop49" />
      <stop
         offset="0.30111277"
         style="stop-color:#FFFFFF"
         id="stop51" />
      <stop
         offset="0.5313"
         style="stop-color:#FAFAFA"
         id="stop53" />
      <stop
         offset="0.8449"
         style="stop-color:#EBECEC"
         id="stop55" />
      <stop
         offset="1"
         style="stop-color:#E1E2E3"
         id="stop57" />
    </radialGradient>
    <filter
       inkscape:collect="always"
       x="-0.19200002"
       width="1.3839999"
       y="-0.19199999"
       height="1.3839999"
       id="filter6697"
       color-interpolation-filters="sRGB">
      <feGaussianBlur
         inkscape:collect="always"
         stdDeviation="1.9447689"
         id="feGaussianBlur6699" />
    </filter>
    <clipPath
       clipPathUnits="userSpaceOnUse"
       id="clipPath7084">
      <path
         style="fill:#000000;fill-opacity:1;fill-rule:evenodd;stroke:none"
         d="m 72,88 -32,32 -8,0 0,-40 40,0 0,8 z"
         id="path7086"
         inkscape:connector-curvature="0" />
    </clipPath>
  </defs>
  <sodipodi:namedview
     id="base"
     pagecolor="#ffffff"
     bordercolor="#666666"
     borderopacity="1.0"
     inkscape:pageopacity="0.0"
     inkscape:pageshadow="2"
     inkscape:zoom="2.8284271"
     inkscape:cx="35.999876"
     inkscape:cy="57.798844"
     inkscape:document-units="px"
     inkscape:current-layer="layer1"
     width="128px"
     height="128px"
     showgrid="true"
     inkscape:grid-points="true"
     showguides="true"
     inkscape:guide-bbox="true"
     inkscape:window-width="1849"
     inkscape:window-height="1174"
     inkscape:window-x="62"
     inkscape:window-y="-9"
     inkscape:window-maximized="1"
     fit-margin-top="0"
     fit-margin-left="0"
     fit-margin-right="0"
     fit-margin-bottom="0">
    <inkscape:grid
       id="GridFromPre046Settings"
       type="xygrid"
       originx="-28.000124px"
       originy="-28px"
       spacingx="4px"
       spacingy="4px"
       color="#3f3fff"
       empcolor="#3f3fff"
       opacity="0.15"
       empopacity="0.38"
       empspacing="2"
       visible="true"
       enabled="true"
       snapvisiblegridlinesonly="true" />
  </sodipodi:namedview>
  <metadata
     id="metadata2611">
    <rdf:RDF>
      <cc:Work
         rdf:about="">
        <dc:format>image/svg+xml</dc:format>
        <dc:type
           rdf:resource="http://purl.org/dc/dcmitype/StillImage" />
        <dc:title></dc:title>
      </cc:Work>
    </rdf:RDF>
  </metadata>
  <g
     inkscape:label="Livello 1"
     inkscape:groupmode="layer"
     id="layer1"
     transform="translate(-28.000124,-28)">
    <g
       id="g2519"
       transform="matrix(1.0285823,0,0,1.0285823,-1.8287397,-0.8005952)">
      <circle
         cx="85.233002"
         cy="41.768002"
         r="5.993"
         id="circle2521"
         sodipodi:cx="85.233002"
         sodipodi:cy="41.768002"
         sodipodi:rx="5.993"
         sodipodi:ry="5.993"
         style="fill:#ffcc00"
         d="m 91.226002,41.768002 c 0,3.309842 -2.683158,5.993 -5.993,5.993 -3.309843,0 -5.993,-2.683158 -5.993,-5.993 0,-3.309843 2.683157,-5.993 5.993,-5.993 3.309842,0 5.993,2.683157 5.993,5.993 z" />
      <circle
         cx="71.773003"
         cy="33.994999"
         r="5.9920001"
         id="circle2523"
         sodipodi:cx="71.773003"
         sodipodi:cy="33.994999"
         sodipodi:rx="5.9920001"
         sodipodi:ry="5.9920001"
         style="fill:#ff9900"
         d="m 77.765003,33.994999 c 0,3.30929 -2.68271,5.992 -5.992,5.992 -3.309291,0 -5.992,-2.68271 -5.992,-5.992 0,-3.30929 2.682709,-5.992 5.992,-5.992 3.30929,0 5.992,2.68271 5.992,5.992 z" />
      <circle
         cx="93.005997"
         cy="55.229"
         r="5.993"
         id="circle2525"
         sodipodi:cx="93.005997"
         sodipodi:cy="55.229"
         sodipodi:rx="5.993"
         sodipodi:ry="5.993"
         style="fill:#ffff00"
         d="m 98.998997,55.229 c 0,3.309843 -2.683158,5.993 -5.993,5.993 -3.309843,0 -5.993,-2.683157 -5.993,-5.993 0,-3.309842 2.683157,-5.993 5.993,-5.993 3.309842,0 5.993,2.683158 5.993,5.993 z" />
      <circle
         cx="56.226002"
         cy="33.994999"
         r="5.994"
         id="circle2527"
         sodipodi:cx="56.226002"
         sodipodi:cy="33.994999"
         sodipodi:rx="5.994"
         sodipodi:ry="5.994"
         style="fill:#ff6600"
         d="m 62.220002,33.994999 c 0,3.310395 -2.683605,5.994 -5.994,5.994 -3.310395,0 -5.994,-2.683605 -5.994,-5.994 0,-3.310395 2.683605,-5.994 5.994,-5.994 3.310395,0 5.994,2.683605 5.994,5.994 z" />
      <circle
         cx="93.004997"
         cy="70.773003"
         r="5.9920001"
         id="circle2529"
         sodipodi:cx="93.004997"
         sodipodi:cy="70.773003"
         sodipodi:rx="5.9920001"
         sodipodi:ry="5.9920001"
         style="fill:#99ff00"
         d="m 98.996997,70.773003 c 0,3.30929 -2.682709,5.992 -5.992,5.992 -3.30929,0 -5.992,-2.68271 -5.992,-5.992 0,-3.309291 2.68271,-5.992 5.992,-5.992 3.309291,0 5.992,2.682709 5.992,5.992 z" />
      <path
         d="m 38.527,37.53 c 2.34,-2.34 6.137,-2.34 8.478,0 2.338,2.338 2.338,6.135 -0.001,8.475 -2.34,2.34 -6.137,2.34 -8.477,0.002 -2.339,-2.342 -2.338,-6.138 0,-8.477 z"
         id="path2531"
         style="fill:#ff0000"
         inkscape:connector-curvature="0" />
      <path
         d="m 80.996,79.995 c 2.34,-2.338 6.136,-2.339 8.475,0 2.341,2.34 2.34,6.137 0,8.477 -2.339,2.339 -6.135,2.339 -8.476,0 -2.339,-2.34 -2.339,-6.137 10e-4,-8.477 z"
         id="path2533"
         style="fill:#00cc00"
         inkscape:connector-curvature="0" />
      <path
         d="m 36.544,49.442 c 3.198,0.854 5.095,4.141 4.239,7.338 -0.857,3.197 -4.143,5.094 -7.339,4.236 -3.199,-0.855 -5.097,-4.141 -4.237,-7.34 0.856,-3.197 4.141,-5.092 7.337,-4.234 z"
         id="path2535"
         style="fill:#cc0099"
         inkscape:connector-curvature="0" />
      <path
         d="m 70.222,86.216 c 3.196,-0.856 6.483,1.04 7.338,4.239 0.857,3.197 -1.039,6.481 -4.233,7.338 -3.2,0.859 -6.485,-1.04 -7.342,-4.237 -0.858,-3.197 1.039,-6.482 4.237,-7.34 z"
         id="path2537"
         style="fill:#009999"
         inkscape:connector-curvature="0" />
      <path
         d="m 33.443,64.985 c 3.198,-0.855 6.483,1.039 7.34,4.238 0.857,3.195 -1.041,6.482 -4.24,7.338 -3.195,0.856 -6.48,-1.039 -7.336,-4.235 -0.86,-3.2 1.038,-6.487 4.236,-7.341 z"
         id="path2539"
         style="fill:#660099"
         inkscape:connector-curvature="0" />
      <circle
         cx="56.226002"
         cy="92.004997"
         r="5.993"
         id="circle2541"
         sodipodi:cx="56.226002"
         sodipodi:cy="92.004997"
         sodipodi:rx="5.993"
         sodipodi:ry="5.993"
         style="fill:#0033cc"
         d="m 62.219002,92.004997 c 0,3.309843 -2.683158,5.993 -5.993,5.993 -3.309843,0 -5.993,-2.683157 -5.993,-5.993 0,-3.309842 2.683157,-5.993 5.993,-5.993 3.309842,0 5.993,2.683158 5.993,5.993 z" />
      <path
         d="m 38.527,79.995 c 2.34,-2.339 6.137,-2.338 8.477,0 2.339,2.34 2.339,6.137 0,8.477 -2.34,2.339 -6.137,2.339 -8.477,0 -2.338,-2.34 -2.339,-6.137 0,-8.477 z"
         id="path2543"
         style="fill:#330099"
         inkscape:connector-curvature="0" />
      <path
         d="m 38.527,46.006 c 2.34,2.338 6.137,2.338 8.477,-0.002 2.339,-2.34 2.339,-6.137 0.001,-8.475 -2.341,-2.34 -6.138,-2.34 -8.478,0 -2.338,2.34 -2.339,6.136 0,8.477 z"
         id="path2545"
         style="fill:none"
         inkscape:connector-curvature="0" />
      <path
         d="m 33.444,61.016 c 3.197,0.857 6.482,-1.039 7.339,-4.236 0.855,-3.197 -1.041,-6.484 -4.239,-7.338 -3.196,-0.857 -6.481,1.037 -7.337,4.234 -0.86,3.199 1.038,6.485 4.237,7.34 z"
         id="path2547"
         style="fill:none"
         inkscape:connector-curvature="0" />
      <circle
         cx="34.993"
         cy="70.773003"
         r="5.9920001"
         id="circle2549"
         sodipodi:cx="34.993"
         sodipodi:cy="70.773003"
         sodipodi:rx="5.9920001"
         sodipodi:ry="5.9920001"
         style="fill:none"
         d="m 40.985,70.773003 c 0,3.30929 -2.68271,5.992 -5.992,5.992 -3.30929,0 -5.992,-2.68271 -5.992,-5.992 0,-3.309291 2.68271,-5.992 5.992,-5.992 3.30929,0 5.992,2.682709 5.992,5.992 z" />
      <path
         d="m 47.004,88.472 c 2.339,-2.34 2.339,-6.137 0,-8.477 -2.34,-2.338 -6.137,-2.339 -8.477,0 -2.34,2.34 -2.338,6.137 0,8.477 2.34,2.339 6.137,2.339 8.477,0 z"
         id="path2551"
         style="fill:none"
         inkscape:connector-curvature="0" />
      <circle
         cx="56.228001"
         cy="92.005997"
         r="5.9920001"
         id="circle2553"
         sodipodi:cx="56.228001"
         sodipodi:cy="92.005997"
         sodipodi:rx="5.9920001"
         sodipodi:ry="5.9920001"
         style="fill:none"
         d="m 62.220001,92.005997 c 0,3.30929 -2.68271,5.992 -5.992,5.992 -3.309291,0 -5.992,-2.68271 -5.992,-5.992 0,-3.309291 2.682709,-5.992 5.992,-5.992 3.30929,0 5.992,2.682709 5.992,5.992 z" />
      <path
         d="m 62.017,32.445 c -0.857,-3.197 -4.143,-5.096 -7.342,-4.239 -3.196,0.857 -5.092,4.145 -4.235,7.34 0.854,3.198 4.143,5.096 7.338,4.239 3.198,-0.859 5.094,-4.144 4.239,-7.34 z"
         id="path2555"
         style="fill:none"
         inkscape:connector-curvature="0" />
      <g
         id="XMLID_1_">
        <path
           d="m 75.631,56.286 c -0.922,-1.602 -0.374,-3.65 1.226,-4.574 1.601,-0.924 3.649,-0.374 4.574,1.225 0.926,1.603 0.376,3.652 -1.225,4.574 -1.602,0.924 -3.649,0.377 -4.575,-1.225 z"
           id="path2558"
           style="fill:#ffe500"
           inkscape:connector-curvature="0" />
        <circle
           cx="72.389"
           cy="48.469002"
           r="3.3469999"
           id="circle2560"
           sodipodi:cx="72.389"
           sodipodi:cy="48.469002"
           sodipodi:rx="3.3469999"
           sodipodi:ry="3.3469999"
           style="fill:#ffb200"
           d="m 75.736,48.469002 c 0,1.848497 -1.498503,3.347 -3.347,3.347 -1.848497,0 -3.347,-1.498503 -3.347,-3.347 0,-1.848497 1.498503,-3.347 3.347,-3.347 1.848497,0 3.347,1.498503 3.347,3.347 z" />
        <path
           d="m 60.652,46.223 c 0,-1.852 1.498,-3.349 3.346,-3.35 1.853,-0.004 3.35,1.498 3.35,3.35 0,1.85 -1.498,3.346 -3.348,3.348 -1.85,-0.002 -3.35,-1.5 -3.348,-3.348 z"
           id="path2562"
           style="fill:#ff8000"
           inkscape:connector-curvature="0" />
        <path
           d="m 77.431,63 c 0.001,-1.85 1.5,-3.349 3.348,-3.348 1.851,0 3.348,1.498 3.35,3.346 0.002,1.853 -1.499,3.348 -3.35,3.349 C 78.929,66.346 77.432,64.851 77.431,63 z"
           id="path2564"
           style="fill:#ccff00"
           inkscape:connector-curvature="0" />
        <path
           d="m 53.934,45.571 c 1.604,-0.926 3.652,-0.377 4.576,1.225 0.925,1.604 0.378,3.65 -1.226,4.575 -1.599,0.923 -3.65,0.374 -4.575,-1.226 -0.922,-1.602 -0.373,-3.65 1.225,-4.574 z"
           id="path2566"
           style="fill:#ff3300"
           inkscape:connector-curvature="0" />
        <circle
           cx="78.530998"
           cy="71.390999"
           r="3.349"
           id="circle2568"
           sodipodi:cx="78.530998"
           sodipodi:cy="71.390999"
           sodipodi:rx="3.349"
           sodipodi:ry="3.349"
           style="fill:#33ff00"
           d="m 81.879998,71.390999 c 0,1.849601 -1.499398,3.349 -3.349,3.349 -1.849601,0 -3.349,-1.499399 -3.349,-3.349 0,-1.849602 1.499399,-3.349 3.349,-3.349 1.849602,0 3.349,1.499398 3.349,3.349 z" />
        <path
           d="m 51.142,51.713 c 1.604,0.922 2.152,2.969 1.228,4.572 -0.926,1.604 -2.973,2.15 -4.576,1.225 -1.601,-0.922 -2.149,-2.971 -1.225,-4.574 0.926,-1.602 2.97,-2.15 4.573,-1.223 z"
           id="path2570"
           style="fill:#e50066"
           inkscape:connector-curvature="0" />
        <circle
           cx="72.390999"
           cy="77.530998"
           r="3.348"
           id="circle2572"
           sodipodi:cx="72.390999"
           sodipodi:cy="77.530998"
           sodipodi:rx="3.348"
           sodipodi:ry="3.348"
           style="fill:#00b266"
           d="m 75.738999,77.530998 c 0,1.84905 -1.498951,3.348 -3.348,3.348 -1.84905,0 -3.348,-1.49895 -3.348,-3.348 0,-1.849049 1.49895,-3.348 3.348,-3.348 1.849049,0 3.348,1.498951 3.348,3.348 z" />
        <path
           d="m 50.568,63 c 0,1.851 -1.5,3.349 -3.347,3.346 -1.851,0 -3.348,-1.496 -3.347,-3.346 -0.005,-1.85 1.494,-3.348 3.346,-3.348 1.852,0 3.348,1.499 3.348,3.348 z"
           id="path2574"
           style="fill:#990099"
           inkscape:connector-curvature="0" />
        <circle
           cx="64"
           cy="79.778"
           r="3.348"
           id="circle2576"
           sodipodi:cx="64"
           sodipodi:cy="79.778"
           sodipodi:rx="3.348"
           sodipodi:ry="3.348"
           style="fill:#0066b2"
           d="m 67.348,79.778 c 0,1.849049 -1.498951,3.348 -3.348,3.348 -1.849049,0 -3.348,-1.498951 -3.348,-3.348 0,-1.849049 1.498951,-3.348 3.348,-3.348 1.849049,0 3.348,1.498951 3.348,3.348 z" />
        <path
           d="m 47.793,68.489 c 1.604,-0.924 3.65,-0.378 4.576,1.226 0.922,1.601 0.375,3.649 -1.225,4.575 -1.603,0.924 -3.65,0.375 -4.575,-1.226 -0.925,-1.602 -0.377,-3.651 1.224,-4.575 z"
           id="path2578"
           style="fill:#400099"
           inkscape:connector-curvature="0" />
        <path
           d="m 58.51,79.206 c -0.924,1.601 -2.973,2.15 -4.575,1.225 -1.6,-0.925 -2.15,-2.972 -1.224,-4.573 0.923,-1.604 2.97,-2.151 4.572,-1.226 1.606,0.924 2.151,2.972 1.227,4.574 z"
           id="path2580"
           style="fill:#1919b2"
           inkscape:connector-curvature="0" />
      </g>
    </g>
  </g>
</svg>
