<?xml version="1.0" encoding="UTF-8" standalone="no"?>
<svg
   xmlns:dc="http://purl.org/dc/elements/1.1/"
   xmlns:cc="http://creativecommons.org/ns#"
   xmlns:rdf="http://www.w3.org/1999/02/22-rdf-syntax-ns#"
   xmlns:svg="http://www.w3.org/2000/svg"
   xmlns="http://www.w3.org/2000/svg"
   xmlns:sodipodi="http://sodipodi.sourceforge.net/DTD/sodipodi-0.dtd"
   xmlns:inkscape="http://www.inkscape.org/namespaces/inkscape"
   enable-background="new 0 0 141.73 141.73"
   height="141.73px"
   id="Warstwa_1"
   version="1.1"
   viewBox="0 0 141.73 141.73"
   width="141.73px"
   xml:space="preserve"
   inkscape:version="0.48.4 r9939"
   sodipodi:docname="flat_item-loop.svg"
   inkscape:export-filename="C:\dev\Miam-Player\svg\flat_item-loop.png"
   inkscape:export-xdpi="325.12524"
   inkscape:export-ydpi="325.12524"><metadata
     id="metadata13"><rdf:RDF><cc:Work
         rdf:about=""><dc:format>image/svg+xml</dc:format><dc:type
           rdf:resource="http://purl.org/dc/dcmitype/StillImage" /><dc:title></dc:title></cc:Work></rdf:RDF></metadata><defs
     id="defs11" /><sodipodi:namedview
     pagecolor="#ffffff"
     bordercolor="#666666"
     borderopacity="1"
     objecttolerance="10"
     gridtolerance="10"
     guidetolerance="10"
     inkscape:pageopacity="0"
     inkscape:pageshadow="2"
     inkscape:window-width="1846"
     inkscape:window-height="1174"
     id="namedview9"
     showgrid="false"
     inkscape:zoom="4.7097214"
     inkscape:cx="65.346689"
     inkscape:cy="83.268167"
     inkscape:window-x="65"
     inkscape:window-y="-9"
     inkscape:window-maximized="1"
     inkscape:current-layer="Warstwa_1" /><path
     style="fill:#575756"
     inkscape:connector-curvature="0"
     id="path5"
     d="m 101.648,40.093 c -8.22,-8.22 -19.149,-12.747 -30.773,-12.747 -11.624,0 -22.553,4.526 -30.772,12.746 -8.219,8.22 -12.748,19.148 -12.748,30.773 0,11.625 4.527,22.554 12.747,30.773 8.22,8.219 19.149,12.746 30.774,12.746 11.624,0 22.553,-4.526 30.772,-12.746 16.969,-16.968 16.968,-44.577 0,-61.545 z m -1.413,60.132 c -7.842,7.842 -18.269,12.16 -29.358,12.16 -11.091,0 -21.518,-4.318 -29.36,-12.16 -7.842,-7.843 -12.161,-18.269 -12.161,-29.359 0,-11.09 4.319,-21.517 12.161,-29.359 7.842,-7.842 18.269,-12.16 29.358,-12.16 11.089,0 21.517,4.319 29.359,12.161 16.189,16.187 16.189,42.528 0.001,58.717 z" /><g
     id="g2996"
     transform="translate(-7.5316191,4.0513879)"><path
   d="m 93.479804,48.674 c -3.445874,0 -5.677896,2.421467 -8.042452,4.986382 -0.0764,0.08264 -0.155922,0.168396 -0.233103,0.251814 -0.07796,-0.08342 -0.157481,-0.169955 -0.234663,-0.252593 C 82.60581,51.095467 80.373009,48.674 76.927914,48.674 c -3.878557,0 -7.033637,2.864285 -7.033637,6.384222 0,3.519937 3.155859,6.384223 7.033637,6.384223 3.527733,0 5.811989,-2.514241 8.229558,-5.175828 l 0.04756,-0.05145 0.046,0.0499 c 2.418349,2.662366 4.701046,5.177387 8.230338,5.177387 3.878557,0 7.03364,-2.864286 7.03364,-6.384223 0,-3.519937 -3.156643,-6.384222 -7.035199,-6.384222 z m -9.476933,6.544822 c -2.366895,2.606234 -4.237178,4.664404 -7.074957,4.664404 -3.018648,0 -5.474418,-2.164196 -5.474418,-4.825004 0,-2.660807 2.45577,-4.825003 5.474418,-4.825003 2.762157,0 4.586443,1.977869 6.895646,4.482755 0.106807,0.115382 0.213613,0.231544 0.321199,0.347706 l -0.141888,0.155142 z m 9.476933,4.665183 c -2.838558,0 -4.708062,-2.058949 -7.075736,-4.665183 l -0.14033,-0.154363 c 0.107586,-0.116162 0.213613,-0.231544 0.31964,-0.346926 2.309983,-2.504885 4.134269,-4.483534 6.896426,-4.483534 3.018646,0 5.474416,2.164196 5.474416,4.825003 0,2.660807 -2.45577,4.825003 -5.474416,4.825003 z"
   id="path7"
   inkscape:connector-curvature="0"
   style="fill:#575756" /><text
   sodipodi:linespacing="125%"
   id="text2992"
   y="84.953224"
   x="52.605728"
   style="font-size:40px;font-style:normal;font-variant:normal;font-weight:normal;font-stretch:normal;line-height:125%;letter-spacing:0px;word-spacing:0px;fill:#575756;fill-opacity:1;stroke:none;font-family:Open Sans;-inkscape-font-specification:Open Sans"
   xml:space="preserve"><tspan
     y="84.953224"
     x="52.605728"
     id="tspan2994"
     sodipodi:role="line">1</tspan></text>

</g></svg>