<?xml version="1.0" encoding="UTF-8" standalone="no"?>
<svg
   xmlns:dc="http://purl.org/dc/elements/1.1/"
   xmlns:cc="http://creativecommons.org/ns#"
   xmlns:rdf="http://www.w3.org/1999/02/22-rdf-syntax-ns#"
   xmlns:svg="http://www.w3.org/2000/svg"
   xmlns="http://www.w3.org/2000/svg"
   xmlns:sodipodi="http://sodipodi.sourceforge.net/DTD/sodipodi-0.dtd"
   xmlns:inkscape="http://www.inkscape.org/namespaces/inkscape"
   enable-background="new 0 0 141.73 141.73"
   height="141.73px"
   id="Warstwa_1"
   version="1.1"
   viewBox="0 0 141.73 141.73"
   width="141.73px"
   xml:space="preserve"
   inkscape:version="0.48.4 r9939"
   sodipodi:docname="seek_forward.svg"><metadata
     id="metadata15"><rdf:RDF><cc:Work
         rdf:about=""><dc:format>image/svg+xml</dc:format><dc:type
           rdf:resource="http://purl.org/dc/dcmitype/StillImage" /><dc:title></dc:title></cc:Work></rdf:RDF></metadata><defs
     id="defs13" /><sodipodi:namedview
     pagecolor="#ffffff"
     bordercolor="#666666"
     borderopacity="1"
     objecttolerance="10"
     gridtolerance="10"
     guidetolerance="10"
     inkscape:pageopacity="0"
     inkscape:pageshadow="2"
     inkscape:window-width="1846"
     inkscape:window-height="1174"
     id="namedview11"
     showgrid="false"
     inkscape:zoom="4.7097214"
     inkscape:cx="90.943496"
     inkscape:cy="46.680707"
     inkscape:window-x="65"
     inkscape:window-y="-9"
     inkscape:window-maximized="1"
     inkscape:current-layer="Warstwa_1" /><path
     style="fill:#575756"
     inkscape:connector-curvature="0"
     id="path5"
     d="m 101.628,40.092 c -8.22,-8.22 -19.149,-12.746 -30.774,-12.746 -11.624,0 -22.553,4.526 -30.772,12.746 -16.968,16.969 -16.967,44.578 10e-4,61.546 8.22,8.22 19.149,12.747 30.773,12.747 11.624,0 22.553,-4.526 30.772,-12.746 8.219,-8.22 12.747,-19.148 12.747,-30.773 0,-11.625 -4.527,-22.554 -12.747,-30.774 z m -1.414,60.133 c -7.842,7.842 -18.269,12.16 -29.358,12.16 -11.089,0 -21.517,-4.319 -29.359,-12.161 C 25.309,84.036 25.309,57.695 41.496,41.506 c 7.842,-7.842 18.269,-12.16 29.358,-12.16 11.091,0 21.518,4.318 29.36,12.16 7.842,7.843 12.161,18.269 12.161,29.359 0,11.09 -4.319,21.517 -12.161,29.36 z" /><text
     xml:space="preserve"
     style="font-size:40px;font-style:normal;font-variant:normal;font-weight:normal;font-stretch:normal;line-height:125%;letter-spacing:0px;word-spacing:0px;fill:#575756;fill-opacity:1;stroke:none;font-family:Open Sans;-inkscape-font-specification:Open Sans"
     x="60.04739"
     y="85.142845"
     id="text2999"
     sodipodi:linespacing="125%"><tspan
       sodipodi:role="line"
       id="tspan3001"
       x="60.04739"
       y="85.142845">1</tspan></text>
</svg>