<?xml version="1.0" encoding="UTF-8" standalone="no"?>
<svg
   xmlns:dc="http://purl.org/dc/elements/1.1/"
   xmlns:cc="http://creativecommons.org/ns#"
   xmlns:rdf="http://www.w3.org/1999/02/22-rdf-syntax-ns#"
   xmlns:svg="http://www.w3.org/2000/svg"
   xmlns="http://www.w3.org/2000/svg"
   xmlns:sodipodi="http://sodipodi.sourceforge.net/DTD/sodipodi-0.dtd"
   xmlns:inkscape="http://www.inkscape.org/namespaces/inkscape"
   enable-background="new 0 0 141.73 141.73"
   height="141.73px"
   id="Warstwa_1"
   version="1.1"
   viewBox="0 0 141.73 141.73"
   width="141.73px"
   xml:space="preserve"
   inkscape:version="0.48.4 r9939"
   sodipodi:docname="seek_backward.svg"
   inkscape:export-filename="C:\dev\Miam-Player\svg\skip-forward.png"
   inkscape:export-xdpi="325.12524"
   inkscape:export-ydpi="325.12524"><metadata
     id="metadata15"><rdf:RDF><cc:Work
         rdf:about=""><dc:format>image/svg+xml</dc:format><dc:type
           rdf:resource="http://purl.org/dc/dcmitype/StillImage" /></cc:Work></rdf:RDF></metadata><defs
     id="defs13" /><sodipodi:namedview
     pagecolor="#ffffff"
     bordercolor="#666666"
     borderopacity="1"
     objecttolerance="10"
     gridtolerance="10"
     guidetolerance="10"
     inkscape:pageopacity="0"
     inkscape:pageshadow="2"
     inkscape:window-width="1846"
     inkscape:window-height="1174"
     id="namedview11"
     showgrid="false"
     inkscape:zoom="4.7097214"
     inkscape:cx="56.651964"
     inkscape:cy="56.323934"
     inkscape:window-x="65"
     inkscape:window-y="-9"
     inkscape:window-maximized="1"
     inkscape:current-layer="Warstwa_1" /><path
     style="fill:#575756"
     inkscape:connector-curvature="0"
     id="path5"
     d="m 101.648,40.093 c -8.22,-8.22 -19.149,-12.747 -30.773,-12.747 -11.624,0 -22.553,4.526 -30.772,12.746 -8.219,8.22 -12.748,19.148 -12.748,30.773 0,11.625 4.527,22.554 12.747,30.773 8.22,8.219 19.149,12.746 30.774,12.746 11.624,0 22.553,-4.526 30.772,-12.746 16.969,-16.968 16.968,-44.577 0,-61.545 z m -1.413,60.132 c -7.842,7.842 -18.269,12.16 -29.358,12.16 -11.091,0 -21.518,-4.318 -29.36,-12.16 -7.842,-7.843 -12.161,-18.269 -12.161,-29.359 0,-11.09 4.319,-21.517 12.161,-29.359 7.842,-7.842 18.269,-12.16 29.358,-12.16 11.089,0 21.517,4.319 29.359,12.161 16.189,16.187 16.189,42.528 0.001,58.717 z" /><g
     id="g3012"
     transform="translate(4.9013385,0)"><path
       d="m 82.921,55.985 c -0.391,-0.391 -1.023,-0.391 -1.414,0 L 67.333,70.16 c -0.391,0.391 -0.391,1.023 0,1.414 l 14.173,14.173 c 0.195,0.195 0.451,0.293 0.707,0.293 0.256,0 0.512,-0.098 0.707,-0.293 0.391,-0.391 0.391,-1.023 0,-1.414 L 69.454,70.867 82.921,57.399 c 0.391,-0.39 0.391,-1.023 0,-1.414 z"
       id="path7"
       inkscape:connector-curvature="0"
       style="fill:#575756" /><path
       d="m 55.281,70.870968 13.467,-13.468 c 0.391,-0.391 0.391,-1.023 0,-1.414 -0.391,-0.391 -1.023,-0.391 -1.414,0 l -14.174,14.175 c -0.391,0.391 -0.391,1.023 0,1.414 l 14.173,14.173 c 0.195,0.195 0.451,0.293 0.707,0.293 0.256,0 0.512,-0.098 0.707,-0.293 0.391,-0.391 0.391,-1.023 0,-1.414 l -13.466,-13.466 z"
       id="path9"
       inkscape:connector-curvature="0"
       style="fill:#575756" /><path
       d="m 49.712448,55.697995 c -0.553,0 -1,0.447 -1,1 v 28.346001 c 0,0.553 0.447,1.000002 1,1.000002 0.553,0 1,-0.447002 1,-1.000002 V 56.697995 c 0,-0.552 -0.447,-1 -1,-1 z"
       id="path7-1"
       inkscape:connector-curvature="0"
       style="fill:#575756" /></g></svg>