<?xml version="1.0" encoding="UTF-8" standalone="no"?>
<!-- Generator: Adobe Illustrator 14.0.0, SVG Export Plug-In . SVG Version: 6.00 Build 43363)  -->

<svg
   xmlns:dc="http://purl.org/dc/elements/1.1/"
   xmlns:cc="http://creativecommons.org/ns#"
   xmlns:rdf="http://www.w3.org/1999/02/22-rdf-syntax-ns#"
   xmlns:svg="http://www.w3.org/2000/svg"
   xmlns="http://www.w3.org/2000/svg"
   xmlns:xlink="http://www.w3.org/1999/xlink"
   xmlns:sodipodi="http://sodipodi.sourceforge.net/DTD/sodipodi-0.dtd"
   xmlns:inkscape="http://www.inkscape.org/namespaces/inkscape"
   version="1.1"
   x="0px"
   y="0px"
   width="256"
   height="256"
   viewBox="0 0 256.00002 256"
   enable-background="new 0 0 48 48"
   xml:space="preserve"
   id="svg2"
   inkscape:version="0.48.4 r9939"
   sodipodi:docname="translate.svg"
   inkscape:export-filename="C:\Users\MasterMatt\Desktop\Gnome-globe.png"
   inkscape:export-xdpi="90"
   inkscape:export-ydpi="90"><metadata
   id="metadata66"><rdf:RDF><cc:Work
       rdf:about=""><dc:format>image/svg+xml</dc:format><dc:type
         rdf:resource="http://purl.org/dc/dcmitype/StillImage" /><dc:title></dc:title><cc:license
         rdf:resource="GNU Lesser General Public License" /><dc:creator><cc:Agent><dc:title>David Vignoni</dc:title></cc:Agent></dc:creator></cc:Work></rdf:RDF></metadata><defs
   id="defs64"><radialGradient
     inkscape:collect="always"
     xlink:href="#SVGID_5_"
     id="radialGradient3047"
     gradientUnits="userSpaceOnUse"
     gradientTransform="matrix(0.315,0,0,0.315,-193.9387,-303.1233)"
     cx="679.83826"
     cy="1040.605"
     r="96.022903"
     fx="679.83826"
     fy="1040.605" /><linearGradient
     inkscape:collect="always"
     xlink:href="#SVGID_6_"
     id="linearGradient3821"
     gradientUnits="userSpaceOnUse"
     gradientTransform="matrix(0.315,0,0,-0.315,-250.1662,-358.4061)"
     x1="868.99609"
     y1="-1149.4053"
     x2="868.99609"
     y2="-1269.558" /></defs><sodipodi:namedview
   pagecolor="#ffffff"
   bordercolor="#666666"
   borderopacity="1"
   objecttolerance="10"
   gridtolerance="10"
   guidetolerance="10"
   inkscape:pageopacity="0"
   inkscape:pageshadow="2"
   inkscape:window-width="1849"
   inkscape:window-height="1174"
   id="namedview62"
   showgrid="false"
   fit-margin-top="0"
   fit-margin-left="0"
   fit-margin-right="0"
   fit-margin-bottom="0"
   inkscape:zoom="2.4583333"
   inkscape:cx="56.813553"
   inkscape:cy="140.9511"
   inkscape:window-x="62"
   inkscape:window-y="-9"
   inkscape:window-maximized="1"
   inkscape:current-layer="g3817" />
<radialGradient
   id="SVGID_1_"
   cx="24.223101"
   cy="24.3286"
   r="20.4727"
   gradientUnits="userSpaceOnUse">
	<stop
   offset="0.9476"
   style="stop-color:#000000;stop-opacity:0.4"
   id="stop5" />
	<stop
   offset="1"
   style="stop-color:#000000;stop-opacity:0"
   id="stop7" />
</radialGradient>

<linearGradient
   id="SVGID_2_"
   gradientUnits="userSpaceOnUse"
   x1="625.57031"
   y1="1036.8477"
   x2="755.56348"
   y2="1036.8477"
   gradientTransform="matrix(0.315,0,0,0.315,-193.9387,-303.1233)">
	<stop
   offset="0"
   style="stop-color:#0053BD"
   id="stop12" />
	<stop
   offset="0.9944"
   style="stop-color:#0032A4"
   id="stop14" />
</linearGradient>


<g
   id="g20"
   transform="translate(104.05397,104.88868)">
	<defs
   id="defs22">
		<path
   id="SVGID_3_"
   d="m 23.589,42.098 c 10.277,0 18.616,-8.373 18.616,-18.645 0,-10.207 -8.338,-18.581 -18.616,-18.581 -10.206,0 -18.615,8.374 -18.615,18.581 0,10.272 8.41,18.645 18.615,18.645 z"
   inkscape:connector-curvature="0" />
	</defs>
	<clipPath
   id="SVGID_4_">
		<use
   xlink:href="#SVGID_3_"
   overflow="visible"
   id="use26"
   style="overflow:visible"
   x="0"
   y="0"
   width="48"
   height="48" />
	</clipPath>
	
		<radialGradient
   id="SVGID_5_"
   cx="685.64941"
   cy="995.40723"
   r="96.022903"
   gradientTransform="matrix(0.315,0,0,0.315,-193.9387,-303.1233)"
   gradientUnits="userSpaceOnUse">
		<stop
   offset="0"
   style="stop-color:#FFFFFF"
   id="stop29" />
		<stop
   offset="0.5955"
   style="stop-color:#57ADFF"
   id="stop31" />
		<stop
   offset="0.9944"
   style="stop-color:#C9E6FF"
   id="stop33" />
	</radialGradient>
	
	
		<linearGradient
   id="SVGID_6_"
   gradientUnits="userSpaceOnUse"
   x1="868.99609"
   y1="-1149.4053"
   x2="868.99609"
   y2="-1269.558"
   gradientTransform="matrix(0.315,0,0,-0.315,-250.1662,-358.4061)">
		<stop
   offset="0"
   style="stop-color:#006A00"
   id="stop38" />
		
		<stop
   offset="1"
   style="stop-color:#00BD00"
   id="stop42" />
	</linearGradient>
	<g
   id="g3817"
   transform="matrix(6.856837,0,0,6.856837,-137.80332,-137.9215)"><path
     inkscape:connector-curvature="0"
     style="fill:#79c3ff;fill-opacity:1"
     id="path35"
     d="m 23.589,42.098 c 10.277,0 18.616,-8.373 18.616,-18.645 0,-10.207 -8.338,-18.581 -18.616,-18.581 -10.206,0 -18.615,8.374 -18.615,18.581 0,10.272 8.41,18.645 18.615,18.645 z"
     clip-path="url(#SVGID_4_)" /><path
     style="fill:url(#linearGradient3821)"
     inkscape:connector-curvature="0"
     id="path44"
     d="m 17.279,6.581 c -0.094,0 -0.197,0.039 -0.302,0.098 0.247,-0.073 0.363,-0.098 0.302,-0.098 m 6.117,1.192 0.061,-0.895 -0.944,0.059 0.125,0.835 h 0.758 M 12.739,23.237 c -0.19,-0.179 -0.063,-0.956 -0.063,-0.956 0,0 -2.838,-1.491 -5.927,-2.388 -0.381,-0.11 -0.188,-0.895 0.188,-1.192 L 6.812,17.863 c -0.063,-0.417 0.631,-2.447 1.325,-2.625 0.694,-0.18 -0.063,1.193 -0.063,1.193 l -0.693,0.418 c 0,0 0.819,0.955 1.009,0.955 0.188,0 0.504,-0.479 0.504,-0.479 L 8.012,16.73 8.831,16.371 8.883,16.057 9.021,16.013 10.378,13.957 c 0.938,-0.384 2.091,-0.859 2.237,-0.929 0.253,-0.119 2.018,-1.133 2.333,-1.371 0.316,-0.24 1.008,-0.179 1.26,-0.179 0.253,0 0.631,-0.12 0.694,-0.778 0.063,-0.656 0.315,-0.776 0.505,-0.596 0.189,0.177 -0.19,0.477 0.252,0.596 0.441,0.12 0.819,0.418 1.135,0.12 0.23,-0.218 -0.078,-0.467 -0.286,-0.655 h 3.501 L 22.388,9.088 21.568,8.969 18.542,8.67 V 8.312 L 18.3,8.353 C 18.628,6.552 20.574,6.849 19.109,5.806 19.02,5.742 17.738,7.827 17.411,7.786 16.82,7.708 16.057,7.702 15.894,7.894 15.678,8.148 16.377,7.021 16.979,6.679 16.261,6.89 14.975,6.237 12.656,7.875 c -0.784,0.554 -2.752,2.8 -3.563,3.663 -3.422,4.04 -3.698,7.496 -3.698,7.649 0,0.298 0.725,0.467 0.787,0.826 0.063,0.356 -1.198,1.552 -1.198,2.148 0,0.274 -0.631,3.255 0.755,6.984 1.23,3.538 3.61,6.658 3.916,6.854 l 0.876,-0.465 c 0,0 -1.45,-2.567 -1.513,-2.807 -0.063,-0.238 1.639,-3.701 2.46,-3.58 0.819,0.116 0.63,0.357 1.135,0.059 0.505,-0.297 0.82,-2.747 1.387,-2.984 0.568,-0.24 1.198,-0.538 1.135,-1.135 -0.064,-0.598 -2.207,-1.671 -2.396,-1.85 M 26.422,5.685 24.72,5.087 25.035,6.043 26.422,5.685 m -6.369,2.209 c 0.19,0 3.972,-2.506 3.594,-2.567 -0.377,-0.059 -0.44,0 -1.451,-0.12 -1.007,-0.119 -2.081,1.433 -2.332,1.673 -0.252,0.239 -0.167,1.014 0.189,1.014 m 17.361,18.001 0.488,-0.634 -0.488,-0.172 -0.366,0.46 -0.427,0.633 0.365,0.172 0.428,-0.459 m 2.135,2.072 -0.122,-0.922 h -0.792 l -0.062,0.69 -0.733,-0.114 -0.182,-0.748 -0.366,-0.23 -0.428,0.518 -0.427,-0.114 -0.123,0.401 0.489,0.117 v 3.738 l 1.727,0.416 c -0.04,0.068 -0.069,0.127 -0.079,0.158 -0.123,0.403 0.487,0.578 0.914,0.403 0.158,-0.063 1.153,-0.446 1.469,-1.197 0.439,-1.046 0.724,-2.552 0.8,-3.039 l -0.193,-0.423 -1.221,0.461 -0.673,-0.115 h 0.002 M 38.938,12.656 c -2.792,-4.233 -9.5,-7 -9.5,-7 L 27.71,6.561 27.465,6.16 26.856,5.929 v 0.519 l 0.549,0.461 -0.365,0.172 -1.404,0.114 -3.173,1.727 0.305,1.381 -0.367,0.116 -0.182,0.287 1.038,1.552 0.061,0.519 -0.854,0.172 v 1.035 l -0.488,0.115 0.061,0.806 -4.151,2.878 0.122,1.609 c 0.305,0.403 2.686,2.82 2.686,2.82 0,0 2.746,0.114 3.356,-0.23 0.611,-0.345 0.183,0.345 0.367,0.518 0.182,0.173 0.244,1.381 0.426,1.496 0.184,0.115 0,0.804 0.244,1.037 0.244,0.229 0.244,2.991 0.244,2.991 0,0 1.465,2.474 1.465,3.106 0,0.632 -0.062,0.575 1.099,0.518 1.159,-0.057 1.403,-0.518 1.647,-0.689 0.244,-0.171 0.244,-0.575 0.488,-0.922 0.246,-0.346 0.672,-1.667 1.222,-2.127 0.548,-0.462 2.014,-0.808 2.135,-1.611 0.122,-0.807 0.671,-1.439 0.671,-1.439 l 2.639,-2.791 -0.074,0.375 -0.061,1.438 0.794,-0.287 -0.061,-1.555 -0.284,-0.301 0.04,-0.044 c 0,0 -0.184,-0.345 -0.427,-0.345 -0.244,0 -1.71,0.345 -1.953,0.288 -0.244,-0.058 -1.282,-2.82 -1.465,-2.934 -0.184,-0.115 -1.342,-2.015 -1.342,-2.015 0,0 2.684,3.222 3.111,4.488 0.248,0.737 1.18,0.051 1.938,-0.718 l 0.2,0.489 0.487,-0.116 -0.061,-0.575 h 0.549 v 0.863 l -0.183,0.461 -0.063,0.747 0.489,0.461 0.244,-0.402 0.791,-0.749 0.916,-0.46 0.245,0.46 0.122,0.633 -0.244,0.69 -0.488,0.403 -0.244,1.036 v 0.518 l -0.549,-0.346 -0.061,-1.092 -0.793,0.059 -0.365,0.977 0.549,0.807 1.281,0.173 1.037,-0.979 0.122,-1.896 0.462,-0.61 c 0.301,0.773 0.516,1.582 0.516,2.335 0,0.826 0.654,-0.417 0.334,-2.937 -0.001,-0.003 -0.503,-5.987 -3.268,-8.753 z m -12.206,2.479 -3.295,-0.117 1.402,-1.15 h 0.732 l 1.16,0.805 v 0.462 m 4.031,-0.403 v 0.518 h -1.403 l 0.122,0.346 -0.855,0.116 -0.06,0.286 -0.61,-0.113 -1.1,-0.231 0.184,-0.287 0.184,-0.347 0.61,-0.633 0.245,0.461 0.914,-0.058 0.488,-0.519 1.893,0.346 -0.612,0.115 m 0.121,-0.748 -0.732,0.115 -0.121,-0.519 0.914,-0.114 0.123,-0.518 0.672,0.691 -0.856,0.345 0,0 m 3.541,17.893 -0.428,0.346 0.061,0.863 h 0.549 V 32.34 l 0.49,-0.635 v -1.322 l -0.307,-0.06 -0.365,1.554 0,0 m -4.089,-1.725 c 0,0 -0.428,0.111 0.06,0.287 0.488,0.174 2.441,-2.818 2.441,-2.818 l -1.648,1.035 -0.853,1.496 0,0 M 27.013,41.18 26.648,40.832 25.916,40.716 25.795,41.065 24.818,40.95 24.756,40.487 h -0.732 l -0.793,0.463 h -1.402 l -0.122,-0.348 -2.257,-0.233 -0.366,0.349 -0.914,-0.23 -0.123,-0.813 -0.427,-0.06 -0.488,0.872 -1.647,-0.059 c 0.295,0.139 2.753,1.606 6.525,1.912 5.002,0.404 7.381,-0.811 7.381,-0.811 l -0.183,-0.176 -2.195,-0.173 0,0 0,0 z"
     clip-path="url(#SVGID_4_)" /></g>
</g>
<linearGradient
   id="SVGID_7_"
   gradientUnits="userSpaceOnUse"
   x1="690.94141"
   y1="977.15723"
   x2="690.94141"
   y2="1069.1414"
   gradientTransform="matrix(0.315,0,0,0.315,-193.9387,-303.1233)">
	<stop
   offset="0"
   style="stop-color:#FFFFFF"
   id="stop47" />
	<stop
   offset="1"
   style="stop-color:#94CAFF"
   id="stop49" />
</linearGradient>

<linearGradient
   id="SVGID_8_"
   gradientUnits="userSpaceOnUse"
   x1="25.3057"
   y1="5.1606002"
   x2="19.853399"
   y2="32.2952">
	<stop
   offset="0"
   style="stop-color:#FFFFFF"
   id="stop54" />
	<stop
   offset="0.4972"
   style="stop-color:#00A100"
   id="stop56" />
	<stop
   offset="0.9944"
   style="stop-color:#000000"
   id="stop58" />
</linearGradient>

</svg>